<svg xmlns="http://www.w3.org/2000/svg" viewBox="0 0 512 512">
  <defs>
    <linearGradient id="dhyanBg" x1="0%" y1="0%" x2="100%" y2="100%">
      <stop offset="0%" stop-color="#173125"/>
      <stop offset="100%" stop-color="#0c1813"/>
    </linearGradient>
    <linearGradient id="dhyanGlow" x1="10%" y1="10%" x2="90%" y2="90%">
      <stop offset="0%" stop-color="#b4ffd9"/>
      <stop offset="100%" stop-color="#4ecdc4"/>
    </linearGradient>
  </defs>
  <rect width="512" height="512" rx="120" fill="url(#dhyanBg)"/>
  <circle cx="256" cy="256" r="136" fill="none" stroke="#204336" stroke-width="28"/>
  <circle cx="256" cy="256" r="100" fill="none" stroke="url(#dhyanGlow)" stroke-width="18"/>
  <circle cx="256" cy="256" r="34" fill="#b4ffd9"/>
  <path d="M194 314c18-47 43-71 62-71s44 24 62 71" fill="none" stroke="#d5fff0" stroke-width="18" stroke-linecap="round"/>
  <path d="M256 164c28 18 42 43 42 74-25-8-42-31-42-74z" fill="#4ecdc4"/>
  <path d="M256 164c-28 18-42 43-42 74 25-8 42-31 42-74z" fill="#82f2d4"/>
</svg>
